<svg width="375" height="391" viewBox="0 0 375 391" fill="none" xmlns="http://www.w3.org/2000/svg">
<path opacity="0.2" d="M0 375.401C23.3188 378.442 45.5235 374.134 68.1417 365.87C120.052 346.903 174.838 318.779 197.917 254.519C203.715 238.376 211.115 195.473 212.943 177.69C214.983 157.83 215.135 133.812 212.56 113.878C207.135 71.8853 192.217 30.7331 160.353 9.79204C146.707 0.823598 130.427 -5.55849 117.047 7.1187C99.8236 23.4372 91.545 57.2042 90.2494 82.3791C87.7428 131.088 106.668 178.798 129.871 217.092C159.846 266.563 203.216 301.212 252.612 314.263C309.441 329.277 384.558 312.666 419.234 250.102C432.186 226.734 434.643 197.854 420 174.493C393.037 131.479 338.351 136.278 301.278 153.862C279.742 164.077 261.392 184.366 257.445 213.024C252.902 246.015 270.329 282.885 288.358 305.72C323.567 350.313 374.616 371.509 422.057 389" stroke="white" stroke-width="3" stroke-linecap="round" stroke-dasharray="10 10"/>
</svg>
